<?xml version="1.0" encoding="UTF-8"?>
<svg width="178px" height="178px" viewBox="0 0 178 178" version="1.1" xmlns="http://www.w3.org/2000/svg" xmlns:xlink="http://www.w3.org/1999/xlink">
    <title>bug</title>
    <g id="Screens" stroke="none" stroke-width="1" fill="none" fill-rule="evenodd">
        <g id="Artboard" transform="translate(-723.000000, -1066.000000)">
            <g id="bug" transform="translate(723.762700, 1066.265100)">
                <path d="M88.19,-1.42108547e-14 C137.011,-1.42108547e-14 176.491,39.48 176.491,88.301 C176.491,137.011 137.011,176.491 88.19,176.491 C39.48,176.491 -2.84217094e-14,137.011 -2.84217094e-14,88.301 C-2.84217094e-14,39.48 39.48,-1.42108547e-14 88.19,-1.42108547e-14" id="Fill-149" fill="#56B847"></path>
                <path d="M88.19,-1.42108547e-14 C137.011,-1.42108547e-14 176.491,39.48 176.491,88.301 C176.491,137.011 137.011,176.491 88.19,176.491 L88.19,-1.42108547e-14 Z" id="Fill-151" fill="#459E46"></path>
                <path d="M105.5389,61.9443 C107.8739,63.0563 110.0989,64.3913 112.0999,65.9483 L117.9949,60.0533 C119.3289,58.7193 121.5529,58.7193 122.8879,60.0533 L128.7819,65.9483 C130.1169,67.2823 130.1169,69.5063 128.7819,70.8413 C127.4469,72.1753 125.3339,72.1753 123.9999,70.8413 L120.4409,67.2823 L116.8819,70.7303 C120.7749,75.5123 123.4439,81.7393 124.3339,89.3023 L125.3339,88.3013 C126.6689,86.9663 128.7819,86.9663 130.1169,88.3013 L136.1219,94.1953 C137.4559,95.5303 137.4559,97.6433 136.1219,98.9773 C134.7869,100.3123 132.5629,100.3123 131.3399,98.9773 L127.7809,95.5303 L124.5559,98.6433 C124.2219,104.7603 122.8879,110.5433 120.7749,115.6593 L125.0009,115.7703 C126.8909,115.7703 128.4479,117.3273 128.4479,119.1063 L128.3369,127.5583 C128.3369,129.4493 126.7799,130.8953 124.8899,130.8953 C123.1099,130.8953 121.5529,129.3383 121.5529,127.5583 L121.5529,122.5543 L117.4389,122.4433 C110.7659,133.4523 100.2009,140.5703 88.1899,140.5703 C76.2909,140.5703 65.7259,133.4523 59.0529,122.4433 L54.9379,122.5543 L54.9379,127.5583 C54.9379,129.3383 53.3809,130.8953 51.6019,130.8953 C49.7109,130.8953 48.1539,129.4493 48.1539,127.5583 L48.0429,119.1063 C48.0429,117.3273 49.5999,115.7703 51.4909,115.7703 L55.7169,115.6593 C53.6039,110.5433 52.2689,104.7603 51.9359,98.6433 L48.7099,95.5303 L45.1519,98.9773 C43.9279,100.3123 41.7039,100.3123 40.3699,98.9773 C39.0349,97.6433 39.0349,95.5303 40.3699,94.1953 L46.3749,88.3013 C47.7099,86.9663 49.8229,86.9663 51.1569,88.3013 L52.1579,89.3023 C53.0479,81.7393 55.7169,75.5123 59.6089,70.7303 L56.0499,67.2823 L52.4919,70.8413 C51.1569,72.1753 49.0439,72.1753 47.7099,70.8413 C46.3749,69.5063 46.3749,67.2823 47.7099,65.9483 L53.6039,60.0533 C54.9379,58.7193 57.1619,58.7193 58.3859,60.0533 L64.3909,65.9483 C66.3929,64.3913 68.6169,63.0563 70.9529,61.9443 C70.8409,61.3883 70.7299,60.7213 70.7299,60.0533 C70.7299,54.1593 73.7329,47.2643 79.2929,43.7053 L76.4019,40.8143 L74.2889,42.9273 C73.5099,43.7053 72.2869,43.7053 71.5089,42.9273 C70.6189,42.1493 70.6189,40.8143 71.5089,40.0363 L74.9559,36.5883 C75.7349,35.8093 77.0689,35.8093 77.8479,36.5883 L83.1859,41.9263 C84.7429,41.3703 86.4109,41.1483 88.1899,41.1483 C90.0809,41.1483 91.7489,41.3703 93.3059,41.9263 L98.6439,36.5883 C99.4219,35.8093 100.7569,35.8093 101.5349,36.5883 L104.9829,40.0363 C105.8729,40.8143 105.8729,42.1493 104.9829,42.9273 C104.2039,43.7053 102.9809,43.7053 102.2029,42.9273 L100.0899,40.8143 L97.1979,43.7053 C102.7589,47.2643 105.7609,54.1593 105.7609,60.0533 C105.7609,60.7213 105.6499,61.3883 105.5389,61.9443" id="Fill-153" fill="#E7E75F"></path>
                <path d="M105.5389,61.9443 C107.8739,63.0563 110.0989,64.3913 112.0999,65.9483 L117.9949,60.0533 C119.3289,58.7193 121.5529,58.7193 122.8879,60.0533 L128.7819,65.9483 C130.1169,67.2823 130.1169,69.5063 128.7819,70.8413 C127.4469,72.1753 125.3339,72.1753 123.9999,70.8413 L120.4409,67.2823 L116.8819,70.7303 C120.7749,75.5123 123.4439,81.7393 124.3339,89.3023 L125.3339,88.3013 C126.6689,86.9663 128.7819,86.9663 130.1169,88.3013 L136.1219,94.1953 C137.4559,95.5303 137.4559,97.6433 136.1219,98.9773 C134.7869,100.3123 132.5629,100.3123 131.3399,98.9773 L127.7809,95.5303 L124.5559,98.6433 C124.2219,104.7603 122.8879,110.5433 120.7749,115.6593 L125.0009,115.7703 C126.8909,115.7703 128.4479,117.3273 128.4479,119.1063 L128.3369,127.5583 C128.3369,129.4493 126.7799,130.8953 124.8899,130.8953 C123.1099,130.8953 121.5529,129.3383 121.5529,127.5583 L121.5529,122.5543 L117.4389,122.4433 C110.7659,133.4523 100.2009,140.5703 88.1899,140.5703 L88.1899,41.1483 C90.0809,41.1483 91.7489,41.3703 93.3059,41.9263 L98.6439,36.5883 C99.4219,35.8093 100.7569,35.8093 101.5349,36.5883 L104.9829,40.0363 C105.8729,40.8143 105.8729,42.1493 104.9829,42.9273 C104.2039,43.7053 102.9809,43.7053 102.2029,42.9273 L100.0899,40.8143 L97.1979,43.7053 C102.7589,47.2643 105.7609,54.1593 105.7609,60.0533 C105.7609,60.7213 105.6499,61.3883 105.5389,61.9443" id="Fill-155" fill="#BFD230"></path>
            </g>
        </g>
    </g>
</svg>