<?xml version="1.0" encoding="UTF-8"?>
<svg width="178px" height="178px" viewBox="0 0 178 178" version="1.1" xmlns="http://www.w3.org/2000/svg" xmlns:xlink="http://www.w3.org/1999/xlink">
    <title>dark</title>
    <g id="Screens" stroke="none" stroke-width="1" fill="none" fill-rule="evenodd">
        <g id="Artboard" transform="translate(-1147.000000, -1066.000000)">
            <g id="dark" transform="translate(1147.919900, 1066.265100)">
                <path d="M88.301,-1.42108547e-14 C137.011,-1.42108547e-14 176.491,39.48 176.491,88.301 C176.491,137.011 137.011,176.491 88.301,176.491 C39.48,176.491 -5.68434189e-14,137.011 -5.68434189e-14,88.301 C-5.68434189e-14,39.48 39.48,-1.42108547e-14 88.301,-1.42108547e-14" id="Fill-169" fill="#BF3894"></path>
                <path d="M88.301,-1.42108547e-14 C137.011,-1.42108547e-14 176.491,39.48 176.491,88.301 C176.491,137.011 137.011,176.491 88.301,176.491 L88.301,-1.42108547e-14 Z" id="Fill-171" fill="#B11F82"></path>
                <path d="M88.301,20.1291 C99.088,20.1291 109.431,22.6871 118.55,27.2461 C114.658,26.1341 110.654,25.5781 106.428,25.5781 C80.85,25.5781 60.165,46.3751 60.165,71.9531 C60.165,97.5311 80.85,118.2171 106.428,118.2171 C132.007,118.2171 152.803,97.5311 152.803,71.9531 C152.803,69.5061 152.581,67.0601 152.247,64.7241 C154.916,72.0641 156.362,79.9601 156.362,88.3011 C156.362,125.8901 125.89,156.3621 88.301,156.3621 C50.601,156.3621 20.129,125.8901 20.129,88.3011 C20.129,50.6011 50.601,20.1291 88.301,20.1291" id="Fill-173" fill="#F2B71A"></path>
                <path d="M88.301,114.5468 C93.862,116.8818 99.978,118.2168 106.428,118.2168 C132.007,118.2168 152.803,97.5318 152.803,71.9528 C152.803,69.5068 152.581,67.0598 152.247,64.7248 C154.916,72.0648 156.362,79.9608 156.362,88.3008 C156.362,125.8898 125.89,156.3618 88.301,156.3618 L88.301,114.5468 Z M88.301,20.1288 C99.088,20.1288 109.431,22.6868 118.55,27.2468 C114.658,26.1348 110.654,25.5788 106.428,25.5788 C99.978,25.5788 93.862,26.9128 88.301,29.3598 L88.301,20.1288 Z" id="Fill-175" fill="#F38A20"></path>
            </g>
        </g>
    </g>
</svg>