<?xml version="1.0" encoding="UTF-8"?>
<svg width="178px" height="178px" viewBox="0 0 178 178" version="1.1" xmlns="http://www.w3.org/2000/svg" xmlns:xlink="http://www.w3.org/1999/xlink">
    <title>dragon</title>
    <g id="Screens" stroke="none" stroke-width="1" fill="none" fill-rule="evenodd">
        <g id="Artboard" transform="translate(-723.000000, -780.000000)">
            <g id="dragon" transform="translate(723.762700, 780.898900)">
                <path d="M88.19,-5.68434189e-14 C137.011,-5.68434189e-14 176.491,39.48 176.491,88.19 C176.491,136.9 137.011,176.38 88.19,176.38 C39.48,176.38 -2.84217094e-14,136.9 -2.84217094e-14,88.19 C-2.84217094e-14,39.48 39.48,-5.68434189e-14 88.19,-5.68434189e-14" id="Fill-89" fill="#56B847"></path>
                <path d="M88.19,-5.68434189e-14 C137.011,-5.68434189e-14 176.491,39.48 176.491,88.19 C176.491,136.9 137.011,176.38 88.19,176.38 L88.19,-5.68434189e-14 Z" id="Fill-91" fill="#459E46"></path>
                <path d="M84.8537,112.7675 C79.0707,117.8835 79.6267,117.6605 68.5057,127.8925 C62.2777,133.5635 60.3877,134.7875 61.6107,135.1205 C64.3907,136.0105 87.9677,135.3435 83.4077,118.3285 C83.1857,117.5495 85.0757,114.5465 85.7437,112.9895 C86.2997,111.4325 85.5207,112.1005 84.8537,112.7675 M67.9497,29.4705 C113.1007,3.2255 168.7067,41.9265 155.9177,98.3105 C142.2387,157.9185 83.8527,165.3705 37.9227,145.2415 C27.4687,140.6815 27.9137,131.8955 36.4767,125.2235 C81.5177,90.5255 85.8547,70.0625 88.7457,69.7295 C92.7497,69.2845 87.5227,101.8685 96.6417,104.7605 C106.5397,107.7635 123.7777,89.3025 123.3327,65.8365 C122.9987,42.3715 98.9777,28.5815 68.0607,33.8075 C60.3877,35.0315 60.9437,33.4745 67.9497,29.4705" id="Fill-93" fill="#E7E75F"></path>
                <path d="M88.19,22.0197 C128.003,15.0137 166.816,50.1557 155.917,98.3097 C147.02,137.0117 119.218,153.6927 88.19,155.1387 L88.19,69.9517 C88.412,69.8407 88.635,69.7287 88.746,69.7287 C92.75,69.2837 87.523,101.8687 96.642,104.7607 C106.54,107.7627 123.777,89.3017 123.333,65.8367 C122.999,47.8207 108.875,35.4757 88.19,33.1407 L88.19,22.0197 Z" id="Fill-95" fill="#BFD230"></path>
            </g>
        </g>
    </g>
</svg>