<?xml version="1.0" encoding="UTF-8"?>
<svg width="178px" height="178px" viewBox="0 0 178 178" version="1.1" xmlns="http://www.w3.org/2000/svg" xmlns:xlink="http://www.w3.org/1999/xlink">
    <title>electric</title>
    <g id="Screens" stroke="none" stroke-width="1" fill="none" fill-rule="evenodd">
        <g id="Artboard" transform="translate(-514.000000, -780.000000)">
            <g id="electric" transform="translate(514.242100, 780.898900)">
                <path d="M88.19,-5.68434189e-14 C137.011,-5.68434189e-14 176.491,39.48 176.491,88.19 C176.491,136.9 137.011,176.38 88.19,176.38 C39.48,176.38 0,136.9 0,88.19 C0,39.48 39.48,-5.68434189e-14 88.19,-5.68434189e-14" id="Fill-79" fill="#F2B71A"></path>
                <path d="M88.19,-5.68434189e-14 C137.011,-5.68434189e-14 176.491,39.48 176.491,88.19 C176.491,136.9 137.011,176.38 88.19,176.38 L88.19,-5.68434189e-14 Z" id="Fill-81" fill="#F2961F"></path>
                <path d="M36.8108,114.2132 L95.4188,23.5762 C99.3108,17.4602 100.2008,16.6812 98.1988,24.2442 L83.9638,77.5132 L138.4568,58.8302 C140.7928,57.9402 140.7928,60.3872 139.6808,62.1662 L81.0728,152.8032 C77.1798,158.9202 76.2908,159.6982 78.2928,152.1362 L92.5268,98.8662 L38.0338,117.5492 C35.6988,118.4392 35.6988,115.9922 36.8108,114.2132" id="Fill-83" fill="#FEFEFE"></path>
                <path d="M88.19,76.068 L138.457,58.83 C140.793,57.941 140.793,60.387 139.68,62.167 L88.19,141.793 L88.19,114.88 L92.527,98.866 L88.19,100.312 L88.19,76.068 Z M88.19,34.586 L95.419,23.577 C99.311,17.46 100.201,16.682 98.199,24.244 L88.19,61.499 L88.19,34.586 Z" id="Fill-85" fill="#FFCA05"></path>
            </g>
        </g>
    </g>
</svg>