<?xml version="1.0" encoding="UTF-8"?>
<svg width="177px" height="178px" viewBox="0 0 177 178" version="1.1" xmlns="http://www.w3.org/2000/svg" xmlns:xlink="http://www.w3.org/1999/xlink">
    <title>fairy</title>
    <g id="Screens" stroke="none" stroke-width="1" fill="none" fill-rule="evenodd">
        <g id="Artboard" transform="translate(-1366.000000, -1066.000000)">
            <g id="fairy" transform="translate(1366.003500, 1066.265100)">
                <path d="M88.19,-1.42108547e-14 C136.9,-1.42108547e-14 176.491,39.48 176.491,88.301 C176.491,137.011 136.9,176.491 88.19,176.491 C39.48,176.491 0,137.011 0,88.301 C0,39.48 39.48,-1.42108547e-14 88.19,-1.42108547e-14" id="Fill-179" fill="#F5E193"></path>
                <path d="M88.19,-1.42108547e-14 C136.9,-1.42108547e-14 176.491,39.48 176.491,88.301 C176.491,137.011 136.9,176.491 88.19,176.491 L88.19,-1.42108547e-14 Z" id="Fill-181" fill="#F9CD84"></path>
                <path d="M37.8117,41.8152 C36.0327,46.5972 62.6117,78.7372 62.3887,91.6372 C62.2777,97.8652 32.0287,108.2082 39.4797,110.3212 C44.3727,111.7662 62.0557,108.9862 60.9437,113.6572 C59.7197,118.3282 47.7097,136.4552 51.3797,135.3432 C58.7187,133.0082 75.2897,122.1092 84.5197,108.4302 C87.6337,103.7592 88.7457,103.6482 91.9707,108.4302 C101.0907,122.2202 117.6607,133.0082 125.1117,135.3432 C128.6707,136.4552 116.6597,118.3282 115.5477,113.6572 C114.3247,108.9862 132.1177,111.7662 137.0117,110.3212 C144.4627,108.2082 114.2137,97.8652 114.1017,91.6372 C113.7687,78.7372 140.4587,46.5972 138.5687,41.8152 C136.9007,37.3672 108.3187,56.4952 93.4167,71.9532 C88.4127,77.0692 87.5227,76.6242 83.0747,71.9532 C68.1717,56.4952 39.4797,37.3672 37.8117,41.8152" id="Fill-183" fill="#1FAEDE"></path>
                <path d="M88.19,104.8715 C89.302,104.8715 90.414,106.0945 91.971,108.4305 C101.09,122.2205 117.661,133.0075 125.112,135.3435 C128.671,136.4555 116.66,118.3285 115.548,113.6575 C114.324,108.9865 132.118,111.7665 137.011,110.3205 C144.463,108.2075 114.213,97.8655 114.102,91.6375 C113.768,78.7375 140.459,46.5975 138.568,41.8155 C136.9,37.3665 108.319,56.4945 93.417,71.9535 C91.081,74.3995 89.636,75.5115 88.19,75.6235 L88.19,104.8715 Z" id="Fill-185" fill="#0A86B2"></path>
            </g>
        </g>
    </g>
</svg>