<?xml version="1.0" encoding="UTF-8"?>
<svg width="178px" height="178px" viewBox="0 0 178 178" version="1.1" xmlns="http://www.w3.org/2000/svg" xmlns:xlink="http://www.w3.org/1999/xlink">
    <title>fighting</title>
    <g id="Screens" stroke="none" stroke-width="1" fill="none" fill-rule="evenodd">
        <g id="Artboard" transform="translate(-311.000000, -1066.000000)">
            <g id="fighting" transform="translate(311.505300, 1066.265100)">
                <path d="M88.19,-1.42108547e-14 C137.011,-1.42108547e-14 176.491,39.48 176.491,88.301 C176.491,137.011 137.011,176.491 88.19,176.491 C39.48,176.491 -1.42108547e-14,137.011 -1.42108547e-14,88.301 C-1.42108547e-14,39.48 39.48,-1.42108547e-14 88.19,-1.42108547e-14" id="Fill-129" fill="#B82025"></path>
                <path d="M88.19,-1.42108547e-14 C137.011,-1.42108547e-14 176.491,39.48 176.491,88.301 C176.491,137.011 137.011,176.491 88.19,176.491 L88.19,-1.42108547e-14 Z" id="Fill-131" fill="#8E191B"></path>
                <path d="M102.2026,32.8071 L102.2026,32.8071 C108.0966,32.8071 112.8786,37.5891 112.8786,43.4831 L112.8786,64.5021 C112.8786,70.2851 108.0966,75.0671 102.2026,75.0671 C96.4196,75.0671 91.6376,70.2851 91.6376,64.5021 L91.6376,43.4831 C91.6376,37.5891 96.4196,32.8071 102.2026,32.8071 L102.2026,32.8071 Z M76.6246,25.6901 L76.6246,25.6901 C82.4076,25.6901 87.1896,30.4721 87.1896,36.2551 L87.1896,64.5021 C87.1896,70.2851 82.4076,75.0671 76.6246,75.0671 C70.7296,75.0671 65.9476,70.2851 65.9476,64.5021 L65.9476,36.2551 C65.9476,30.4721 70.7296,25.6901 76.6246,25.6901 L76.6246,25.6901 Z M126.7806,37.4781 L126.7806,37.4781 C131.8956,37.4781 136.2326,41.7041 136.2326,46.9311 L136.2326,65.6141 C136.2326,70.8411 131.8956,75.0671 126.7806,75.0671 C121.5536,75.0671 117.3276,70.8411 117.3276,65.6141 L117.3276,46.9311 C117.3276,41.7041 121.5536,37.4781 126.7806,37.4781 L126.7806,37.4781 Z M49.0436,79.7381 C44.2616,79.7381 40.2586,83.6301 40.2586,88.4121 L40.2586,113.2121 C40.2586,117.9941 44.2616,121.9981 49.0436,121.9981 L64.5026,121.9981 C69.2846,121.9981 73.1766,117.9941 73.1766,113.2121 L73.1766,100.9791 L81.4066,100.9791 C87.3006,100.9791 92.0826,96.1971 92.0826,90.3031 C92.0826,84.5201 87.3006,79.7381 81.4066,79.7381 L49.0436,79.7381 Z M127.4476,79.7381 C132.2296,79.7381 136.2326,83.6301 136.2326,88.4121 L136.2326,113.2121 C136.2326,117.9941 132.2296,121.9981 127.4476,121.9981 L85.9656,121.9981 C81.4066,121.9981 77.7366,118.2171 77.7366,113.6571 C77.7366,109.2091 81.4066,105.4271 85.9656,105.4271 L96.5306,105.4271 L96.5306,88.4121 C96.5306,83.6301 100.4236,79.7381 105.2056,79.7381 L127.4476,79.7381 Z M104.2046,126.4461 C108.9866,126.4461 112.8786,130.3391 112.8786,135.1211 L112.8786,142.1271 C112.8786,146.9091 108.8756,150.9131 104.2046,150.9131 L74.6226,150.9131 C69.8406,150.9131 65.9476,146.9091 65.9476,142.1271 L65.9476,135.1211 C65.9476,130.3391 69.8406,126.4461 74.6226,126.4461 L104.2046,126.4461 Z M50.9346,32.8071 L50.9346,32.8071 C56.7176,32.8071 61.4996,37.5891 61.4996,43.4831 L61.4996,64.5021 C61.4996,70.2851 56.7176,75.0671 50.9346,75.0671 C45.0406,75.0671 40.2586,70.2851 40.2586,64.5021 L40.2586,43.4831 C40.2586,37.5891 45.0406,32.8071 50.9346,32.8071 L50.9346,32.8071 Z" id="Fill-133" fill="#E7E75F"></path>
                <path d="M102.2026,32.8071 L102.2026,32.8071 C108.0966,32.8071 112.8786,37.5891 112.8786,43.4831 L112.8786,64.5021 C112.8786,70.2851 108.0966,75.0671 102.2026,75.0671 C96.4196,75.0671 91.6376,70.2851 91.6376,64.5021 L91.6376,43.4831 C91.6376,37.5891 96.4196,32.8071 102.2026,32.8071 L102.2026,32.8071 Z M126.7806,37.4781 L126.7806,37.4781 C131.8956,37.4781 136.2326,41.7041 136.2326,46.9311 L136.2326,65.6141 C136.2326,70.8411 131.8956,75.0671 126.7806,75.0671 C121.5536,75.0671 117.3276,70.8411 117.3276,65.6141 L117.3276,46.9311 C117.3276,41.7041 121.5536,37.4781 126.7806,37.4781 L126.7806,37.4781 Z M88.1896,98.5321 L88.1896,82.1841 C90.5256,84.1861 92.0826,87.0781 92.0826,90.3031 C92.0826,93.6391 90.5256,96.5311 88.1896,98.5321 L88.1896,98.5321 Z M88.1896,121.9981 L88.1896,105.4271 L96.5306,105.4271 L96.5306,88.4121 C96.5306,83.6301 100.4236,79.7381 105.2056,79.7381 L127.4476,79.7381 C132.2296,79.7381 136.2326,83.6301 136.2326,88.4121 L136.2326,113.2121 C136.2326,117.9941 132.2296,121.9981 127.4476,121.9981 L88.1896,121.9981 Z M88.1896,150.8011 L88.1896,126.4461 L104.2046,126.4461 C108.9866,126.4461 112.8786,130.3391 112.8786,135.1211 L112.8786,142.1271 C112.8786,146.9091 108.8756,150.8011 104.2046,150.8011 L88.1896,150.8011 Z" id="Fill-135" fill="#BFD230"></path>
            </g>
        </g>
    </g>
</svg>