<?xml version="1.0" encoding="UTF-8"?>
<svg width="178px" height="178px" viewBox="0 0 178 178" version="1.1" xmlns="http://www.w3.org/2000/svg" xmlns:xlink="http://www.w3.org/1999/xlink">
    <title>fire</title>
    <g id="Screens" stroke="none" stroke-width="1" fill="none" fill-rule="evenodd">
        <g id="Artboard" transform="translate(-514.000000, -495.000000)">
            <g id="fire" transform="translate(514.242100, 495.421500)">
                <path d="M88.19,0 C137.011,0 176.491,39.48 176.491,88.19 C176.491,137.011 137.011,176.491 88.19,176.491 C39.48,176.491 0,137.011 0,88.19 C0,39.48 39.48,0 88.19,0" id="Fill-15" fill="#F38A20"></path>
                <path d="M88.19,0 C137.011,0 176.491,39.48 176.491,88.19 C176.491,137.011 137.011,176.491 88.19,176.491 L88.19,0 Z" id="Fill-17" fill="#F26F21"></path>
                <path d="M30.583,108.6527 C33.141,109.5427 33.919,114.9917 38.813,114.5467 C41.259,114.3247 40.814,113.7687 39.813,111.6557 C37.033,105.5387 29.805,89.0797 36.032,77.7357 C43.817,63.7237 50.378,57.8297 51.046,54.3817 C51.602,51.0457 55.717,59.0527 51.046,68.3947 C48.043,74.2887 49.934,78.8487 51.713,81.4057 C54.716,85.5207 53.604,83.0747 53.937,79.8487 C54.604,73.7327 57.83,61.4997 72.509,53.1587 C92.75,41.7037 75.957,23.3547 79.293,21.7977 C82.741,20.2407 102.981,28.5807 109.876,53.4927 C116.66,78.4037 109.209,85.5207 113.212,87.0777 C117.327,88.6347 138.791,74.0667 141.571,68.1717 C142.238,66.8377 143.128,67.2827 143.906,69.0617 C146.464,74.8447 147.799,93.9727 133.675,106.4287 C132.229,107.6517 130.895,109.3197 133.786,109.0977 C138.457,108.8747 146.242,107.5407 151.914,102.3137 C155.139,99.5337 156.584,94.5287 155.806,102.9807 C155.25,108.7637 152.025,118.2167 138.235,125.5567 C128.671,130.6727 122.22,141.3487 111.433,148.2437 C100.09,155.4727 83.742,156.5847 71.064,152.5807 C55.049,147.6877 59.053,135.1207 42.483,127.3357 C33.697,123.2217 29.582,112.8787 29.471,109.5427 C29.471,108.6527 29.693,108.4307 30.583,108.6527" id="Fill-19" fill="#B82025"></path>
                <path d="M88.19,24.3551 C95.641,28.4701 105.428,37.5891 109.876,53.4921 C116.66,78.4031 109.209,85.5211 113.212,87.0781 C117.327,88.6351 138.791,74.0661 141.571,68.1721 C142.238,66.8371 143.128,67.2821 143.906,69.0621 C146.464,74.8451 147.799,93.9731 133.675,106.4281 C132.229,107.6521 130.895,109.3201 133.786,109.0971 C138.457,108.8751 146.242,107.5401 151.914,102.3141 C155.139,99.5331 156.584,94.5291 155.806,102.9811 C155.25,108.7641 152.025,118.2171 138.235,125.5571 C128.671,130.6721 122.22,141.3481 111.433,148.2441 C104.872,152.4701 96.531,154.5831 88.19,154.9161 L88.19,24.3551 Z" id="Fill-21" fill="#8E191B"></path>
                <path d="M85.2985,151.0239 C85.2985,151.0239 69.9515,150.5789 65.8365,142.0159 C61.6105,133.4529 69.9515,131.3399 66.7265,126.7799 C63.5015,122.2199 61.1655,118.2169 64.6135,119.4399 C67.9495,120.6629 77.6245,127.2249 78.0695,121.6639 C78.5145,115.9929 73.0655,108.4299 77.9585,102.5359 C82.7405,96.6419 87.8565,95.0849 88.0785,88.0789 C88.1895,81.0729 94.0845,92.0819 90.5255,97.6429 C86.9665,103.3149 83.5195,104.8719 89.1905,108.9859 C94.7515,113.2119 96.1975,111.3219 95.8635,116.3259 C95.5295,121.3309 103.0925,124.1109 107.3185,117.3269 C111.5445,110.4319 105.2055,101.3129 106.4285,101.5349 C107.6515,101.8689 115.3255,113.8799 111.0995,121.6639 C109.0975,125.3339 109.2085,126.8909 109.8765,128.4479 C117.9945,147.2429 100.7565,151.4689 85.2985,151.0239" id="Fill-23" fill="#F2B71A"></path>
                <path d="M88.19,108.319 C88.524,108.541 88.857,108.764 89.191,108.986 C94.751,113.212 96.197,111.322 95.863,116.326 C95.53,121.331 103.092,124.111 107.318,117.327 C111.544,110.432 105.205,101.313 106.429,101.535 C107.652,101.869 115.325,113.88 111.099,121.664 C109.098,125.334 109.209,126.891 109.876,128.448 C117.438,146.019 102.87,150.801 88.19,151.024 L88.19,108.319 Z M88.19,86.522 C89.191,83.074 93.751,92.638 90.525,97.643 C89.747,98.977 88.968,99.978 88.19,100.979 L88.19,86.522 Z" id="Fill-25" fill="#F38A20"></path>
            </g>
        </g>
    </g>
</svg>