<?xml version="1.0" encoding="UTF-8"?>
<svg width="178px" height="178px" viewBox="0 0 178 178" version="1.1" xmlns="http://www.w3.org/2000/svg" xmlns:xlink="http://www.w3.org/1999/xlink">
    <title>flying</title>
    <g id="Screens" stroke="none" stroke-width="1" fill="none" fill-rule="evenodd">
        <g id="Artboard" transform="translate(-929.000000, -1066.000000)">
            <g id="flying" transform="translate(929.836000, 1066.265100)">
                <path d="M88.301,-1.42108547e-14 C137.011,-1.42108547e-14 176.491,39.48 176.491,88.301 C176.491,137.011 137.011,176.491 88.301,176.491 C39.591,176.491 0,137.011 0,88.301 C0,39.48 39.591,-1.42108547e-14 88.301,-1.42108547e-14" id="Fill-159" fill="#1FAEDE"></path>
                <path d="M88.301,-1.42108547e-14 C137.011,-1.42108547e-14 176.491,39.48 176.491,88.301 C176.491,137.011 137.011,176.491 88.301,176.491 L88.301,-1.42108547e-14 Z" id="Fill-161" fill="#0A86B2"></path>
                <path d="M53.9369,85.1873 C105.6499,46.4863 134.1199,24.2443 142.4609,29.2483 C150.6899,34.0303 115.6589,68.7283 117.3269,74.4003 C119.1059,80.0713 145.9079,80.2943 146.1309,84.5203 C146.4639,88.7463 122.2199,94.4173 120.4409,99.2003 C118.7729,104.0933 146.1309,112.5453 145.9079,118.4393 C145.5749,124.3333 113.4349,116.2153 111.4329,120.4413 C109.4309,124.6673 116.7709,138.6793 111.8779,142.0163 C106.8729,145.3523 87.1889,127.7813 83.1849,130.8953 C79.2929,134.0083 78.1809,149.8003 56.9399,147.7993 C42.7049,146.4643 32.0289,135.8993 30.5829,122.7763 C28.6919,105.2053 41.3699,94.5293 53.9369,85.1873" id="Fill-163" fill="#FEFEFE"></path>
                <path d="M88.301,59.4976 C118.55,37.1446 136.122,25.4676 142.461,29.2486 C150.69,34.0306 115.659,68.7276 117.327,74.3996 C119.106,80.0716 145.908,80.2936 146.13,84.5196 C146.464,88.7456 122.22,94.4176 120.441,99.1996 C118.773,104.0926 146.13,112.5446 145.908,118.4396 C145.574,124.3336 113.435,116.2146 111.433,120.4406 C109.431,124.6666 116.771,138.6796 111.878,142.0156 C107.985,144.5736 95.641,134.8986 88.301,131.5616 L88.301,59.4976 Z" id="Fill-165" fill="#E4E5E6"></path>
            </g>
        </g>
    </g>
</svg>