<?xml version="1.0" encoding="UTF-8"?>
<svg width="178px" height="178px" viewBox="0 0 178 178" version="1.1" xmlns="http://www.w3.org/2000/svg" xmlns:xlink="http://www.w3.org/1999/xlink">
    <title>ghost</title>
    <g id="Screens" stroke="none" stroke-width="1" fill="none" fill-rule="evenodd">
        <g id="Artboard" transform="translate(-929.000000, -780.000000)">
            <g id="ghost" transform="translate(929.836000, 780.898900)">
                <path d="M88.301,-5.68434189e-14 C137.011,-5.68434189e-14 176.491,39.48 176.491,88.19 C176.491,136.9 137.011,176.38 88.301,176.38 C39.591,176.38 0,136.9 0,88.19 C0,39.48 39.591,-5.68434189e-14 88.301,-5.68434189e-14" id="Fill-99" fill="#8A7D70"></path>
                <path d="M88.301,-5.68434189e-14 C137.011,-5.68434189e-14 176.491,39.48 176.491,88.19 C176.491,136.9 137.011,176.38 88.301,176.38 L88.301,-5.68434189e-14 Z" id="Fill-101" fill="#745B44"></path>
                <path d="M141.2372,108.4302 C145.3522,107.9852 150.4672,102.4252 151.6912,97.1982 C153.1372,91.3042 150.0232,85.6322 144.7962,84.5202 C136.4552,82.9632 133.1192,109.2082 141.2372,108.4302 M127.5582,109.6532 C121.8862,116.3262 110.7652,112.3222 105.2052,107.4292 C99.6442,102.6472 98.8662,94.4172 103.5372,88.9682 C109.3202,82.1842 133.3412,103.0922 127.5582,109.6532 M90.7472,130.8952 C90.6362,134.6762 94.5292,133.5642 96.7532,133.3412 C97.7542,133.3412 98.6432,133.3412 99.3112,134.1202 C101.3122,136.4552 103.3142,133.4522 106.6512,134.8982 C114.3242,138.1232 111.4332,121.4422 101.4242,120.9972 C96.8642,120.7742 90.9702,123.5552 90.7472,130.8952 M154.6932,112.9902 C154.1372,115.9922 154.9162,116.9932 156.4732,117.3272 C159.3642,117.8832 160.9212,118.2172 162.7012,120.5522 C164.5912,122.9992 166.9272,121.5532 166.8152,116.5482 C166.5932,108.7642 156.5842,104.4262 154.6932,112.9902 M9.1192,91.5262 C7.8962,106.8732 17.2372,76.2902 38.9232,68.2832 C79.0702,53.4922 85.9652,94.3062 99.8672,109.5422 C134.5642,147.2422 173.7112,100.7562 155.6942,59.1642 C126.5572,-8.7858 15.5692,13.2342 9.1192,91.5262" id="Fill-103" fill="#FEFEFE"></path>
                <path d="M141.2372,108.4302 C145.3522,107.9852 150.4672,102.4252 151.6912,97.1982 C153.1372,91.3042 150.0232,85.6322 144.7962,84.5202 C136.4552,82.9632 133.1192,109.2082 141.2372,108.4302 L141.2372,108.4302 Z M127.5582,109.6532 C121.8862,116.3262 110.7652,112.3222 105.2052,107.4292 C99.6442,102.6472 98.8662,94.4172 103.5372,88.9682 C109.3202,82.1842 133.3412,103.0922 127.5582,109.6532 L127.5582,109.6532 Z M90.7472,130.8952 C90.6362,134.6762 94.5292,133.5642 96.7532,133.3412 C97.7542,133.3412 98.6432,133.3412 99.3112,134.1202 C101.3122,136.4552 103.3142,133.4522 106.6512,134.8982 C114.3242,138.1232 111.4332,121.4422 101.4242,120.9972 C96.8642,120.7742 90.9702,123.5552 90.7472,130.8952 L90.7472,130.8952 Z M154.6932,112.9902 C154.1372,115.9922 154.9162,116.9932 156.4732,117.3272 C159.3642,117.8832 160.9212,118.2172 162.7012,120.5522 C164.5912,122.9992 166.9272,121.5532 166.8152,116.5482 C166.5932,108.7642 156.5842,104.4262 154.6932,112.9902 L154.6932,112.9902 Z M88.3012,91.4152 C92.1932,98.3102 95.7522,104.9822 99.8672,109.5422 C134.5642,147.2422 173.7112,100.7562 155.6942,59.1642 C143.2392,30.1382 115.9922,17.5712 88.3012,18.6832 L88.3012,91.4152 Z" id="Fill-105" fill="#E4E5E6"></path>
            </g>
        </g>
    </g>
</svg>