<?xml version="1.0" encoding="UTF-8"?>
<svg width="178px" height="178px" viewBox="0 0 178 178" version="1.1" xmlns="http://www.w3.org/2000/svg" xmlns:xlink="http://www.w3.org/1999/xlink">
    <title>grass</title>
    <g id="Screens" stroke="none" stroke-width="1" fill="none" fill-rule="evenodd">
        <g id="Artboard" transform="translate(-723.000000, -495.000000)">
            <g id="grass" transform="translate(723.762700, 495.421500)">
                <path d="M88.19,0 C137.011,0 176.491,39.48 176.491,88.19 C176.491,137.011 137.011,176.491 88.19,176.491 C39.48,176.491 -2.84217094e-14,137.011 -2.84217094e-14,88.19 C-2.84217094e-14,39.48 39.48,0 88.19,0" id="Fill-29" fill="#56B847"></path>
                <path d="M88.19,0 C137.011,0 176.491,39.48 176.491,88.19 C176.491,137.011 137.011,176.491 88.19,176.491 L88.19,0 Z" id="Fill-31" fill="#459E46"></path>
                <path d="M84.4089,26.1345 C67.1709,40.1475 16.3479,103.2035 75.8459,136.3445 C88.9689,143.6835 84.6309,159.4755 84.6309,159.4755 C86.1879,159.8095 90.0809,159.8095 91.6379,159.4755 C91.6379,159.4755 87.2999,143.7955 100.4229,136.3445 C168.0389,97.7545 104.8719,72.7315 91.9709,26.2455 C90.8589,22.2425 87.4119,23.6875 84.4089,26.1345" id="Fill-33" fill="#E7E75F"></path>
                <path d="M88.19,158.6983 C89.525,158.6983 90.859,158.5873 91.638,158.4763 C91.638,158.4763 87.3,142.7953 100.423,135.3443 C168.039,96.7543 104.872,71.7313 91.971,25.2453 C91.304,22.9103 89.858,22.4653 88.19,22.9103 L88.19,158.6983 Z" id="Fill-35" fill="#BFD230"></path>
            </g>
        </g>
    </g>
</svg>