<?xml version="1.0" encoding="UTF-8"?>
<svg width="178px" height="178px" viewBox="0 0 178 178" version="1.1" xmlns="http://www.w3.org/2000/svg" xmlns:xlink="http://www.w3.org/1999/xlink">
    <title>ground</title>
    <g id="Screens" stroke="none" stroke-width="1" fill="none" fill-rule="evenodd">
        <g id="Artboard" transform="translate(-929.000000, -495.000000)">
            <g id="ground" transform="translate(929.836000, 495.421500)">
                <path d="M88.301,0 C137.011,0 176.491,39.48 176.491,88.19 C176.491,137.011 137.011,176.491 88.301,176.491 C39.591,176.491 0,137.011 0,88.19 C0,39.48 39.591,0 88.301,0" id="Fill-39" fill="#77421B"></path>
                <path d="M88.301,0 C137.011,0 176.491,39.48 176.491,88.19 C176.491,137.011 137.011,176.491 88.301,176.491 L88.301,0 Z" id="Fill-41" fill="#5B3512"></path>
                <path d="M91.7485,64.9469 C110.5435,65.0579 116.8825,89.6359 104.2045,102.4249 C89.9695,116.8819 66.1705,102.2029 70.9525,81.7399 C73.2875,72.1759 81.8505,64.7249 91.7485,64.9469 M106.6505,114.6579 C119.4395,114.3249 129.4485,127.8919 129.2265,140.3479 C129.0045,151.6909 120.5525,162.5899 108.7635,162.4789 C98.7545,162.3669 92.4155,154.6939 92.9715,145.0189 C93.1945,140.7929 94.5285,136.0109 94.9735,131.5619 C95.9745,123.6659 96.0855,114.4359 106.6505,114.6579 M144.3515,65.2809 C157.8075,65.1689 162.1445,77.8469 158.4745,88.9679 C155.8055,96.9759 149.3555,106.8729 142.7945,112.2109 C135.2315,118.3279 126.2235,112.0999 123.6655,103.6479 C119.3285,89.4129 126.8915,65.0579 144.3515,65.2809 M55.1605,28.0249 C81.5175,29.1369 78.5145,68.2829 53.9365,69.5069 C40.9255,70.1739 30.0265,60.6099 32.1395,46.7079 C33.8075,35.8099 44.1505,27.5799 55.1605,28.0249 M109.6535,23.0209 C129.2265,23.0209 127.5585,55.0489 106.6505,53.8259 C87.1885,52.6029 88.1895,25.9119 106.8735,23.1319 C107.7625,23.0209 108.6525,22.9089 109.6535,23.0209 M44.0395,94.9739 C59.8315,94.7509 72.7315,109.9869 66.7265,124.8889 C61.9445,136.7889 49.0435,138.9019 38.7015,132.2289 C27.9135,125.4459 17.6825,111.9889 29.6935,100.6459 C33.5855,97.0869 38.7015,95.1959 44.0395,94.9739" id="Fill-43" fill="#B46427"></path>
                <path d="M106.6508,114.658 C119.4398,114.324 129.4488,127.892 129.2268,140.348 C129.0038,151.691 120.5518,162.59 108.7638,162.478 C98.7548,162.367 92.4158,154.694 92.9718,145.018 C93.1938,140.792 94.5288,136.01 94.9738,131.562 C95.9748,123.666 96.0858,114.436 106.6508,114.658 M144.3508,65.28 C157.8078,65.169 162.1448,77.847 158.4748,88.968 C155.8058,96.976 149.3558,106.873 142.7938,112.211 C135.2318,118.328 126.2238,112.1 123.6658,103.648 C119.3288,89.413 126.8908,65.058 144.3508,65.28 M109.6538,23.02 C129.2268,23.02 127.5588,55.049 106.6508,53.826 C87.1888,52.603 88.1898,25.912 106.8728,23.132 C107.7628,23.02 108.6528,22.909 109.6538,23.02 M88.3008,108.097 L88.3008,65.169 C89.4128,65.058 90.5248,64.947 91.7488,64.947 C110.5428,65.058 116.8818,89.636 104.2038,102.425 C99.5338,107.207 93.7508,108.764 88.3008,108.097" id="Fill-45" fill="#904F21"></path>
            </g>
        </g>
    </g>
</svg>