<?xml version="1.0" encoding="UTF-8"?>
<svg width="178px" height="178px" viewBox="0 0 178 178" version="1.1" xmlns="http://www.w3.org/2000/svg" xmlns:xlink="http://www.w3.org/1999/xlink">
    <title>ice</title>
    <g id="Screens" stroke="none" stroke-width="1" fill="none" fill-rule="evenodd">
        <g id="Artboard" transform="translate(-311.000000, -780.000000)">
            <g id="ice" transform="translate(311.505300, 780.898900)">
                <path d="M88.19,-5.68434189e-14 C137.011,-5.68434189e-14 176.491,39.48 176.491,88.19 C176.491,136.9 137.011,176.38 88.19,176.38 C39.48,176.38 -1.42108547e-14,136.9 -1.42108547e-14,88.19 C-1.42108547e-14,39.48 39.48,-5.68434189e-14 88.19,-5.68434189e-14" id="Fill-69" fill="#65CDF5"></path>
                <path d="M88.19,-5.68434189e-14 C137.011,-5.68434189e-14 176.491,39.48 176.491,88.19 C176.491,136.9 137.011,176.38 88.19,176.38 L88.19,-5.68434189e-14 Z" id="Fill-71" fill="#1FAEDE"></path>
                <path d="M87.9676,24.3551 L87.9676,24.3551 C90.8586,24.3551 93.3056,26.8021 93.3056,29.8041 L93.3056,35.1421 L95.0846,33.3631 C97.1976,31.2501 100.6456,31.2501 102.7586,33.3631 C104.7606,35.4761 104.7606,38.9241 102.7586,41.0371 L93.3056,50.3781 L93.3056,78.9591 L118.4396,64.5021 L121.8866,51.7131 C122.6656,48.8211 125.6676,47.0421 128.4486,47.8201 C131.3396,48.5991 133.1186,51.6021 132.3406,54.4931 L131.6736,56.8291 L136.3446,54.1591 C138.9016,52.6021 142.2386,53.4921 143.6836,56.1611 C145.2406,58.7191 144.3516,62.0551 141.7936,63.5011 L137.1226,66.1701 L139.4576,66.8371 C142.3496,67.6161 144.0176,70.6191 143.2396,73.3991 C142.4606,76.2901 139.5696,78.0701 136.6776,77.2911 L123.8886,73.8441 L99.4226,87.9671 L123.4436,101.8691 L136.2326,98.4211 C139.1246,97.6431 142.1276,99.4221 142.9056,102.3141 C143.6836,105.0941 141.9046,108.0971 139.1246,108.8751 L136.6776,109.5421 L141.3486,112.2111 C143.9066,113.6571 144.7966,116.9931 143.3506,119.5511 C141.9046,122.2201 138.5686,123.1101 135.8996,121.5531 L131.3396,118.8841 L131.8956,121.2191 C132.6746,124.1111 131.0056,127.1141 128.1146,127.8921 C125.2236,128.6701 122.2206,126.8911 121.4416,124.0001 L118.1056,111.2101 L93.3056,96.9761 L93.3056,126.0011 L102.7586,135.3431 C104.7606,137.4561 104.7606,140.9041 102.7586,143.0171 C100.6456,145.1301 97.1976,145.1301 95.0846,143.0171 L93.3056,141.2371 L93.3056,146.5751 C93.3056,149.5781 90.8586,152.0251 87.9676,152.0251 C84.9646,152.0251 82.5186,149.5781 82.5186,146.5751 L82.5186,141.2371 L80.7386,143.0171 C78.7376,145.1301 75.2896,145.1301 73.1766,143.0171 C71.0636,140.9041 71.0636,137.4561 73.1766,135.3431 L82.5186,126.0011 L82.5186,97.7541 L58.3856,111.6551 L55.0496,124.4441 C54.2706,127.3361 51.2686,129.0041 48.3766,128.2261 C45.4856,127.4471 43.8166,124.4441 44.5956,121.6641 L45.1516,119.2181 L40.4806,121.9981 C37.9226,123.4441 34.5866,122.5541 33.1406,119.9961 C31.6946,117.4381 32.5846,114.1021 35.1426,112.5451 L39.7026,109.8761 L37.3666,109.3201 C34.5866,108.5411 32.8076,105.5391 33.5856,102.6471 C34.3646,99.7561 37.3666,98.0881 40.2586,98.7551 L53.0476,102.2021 L77.7366,87.9671 L52.6026,73.5101 L39.8136,76.9581 C36.9216,77.6251 33.9196,75.9571 33.2516,73.0651 C32.4736,70.1741 34.1416,67.1711 37.0336,66.3931 L39.3686,65.8371 L34.6976,63.1681 C32.1396,61.6111 31.2506,58.2741 32.8076,55.7161 C34.2526,53.1591 37.5896,52.2691 40.1466,53.7151 L44.8176,56.3841 L44.1506,54.0481 C43.3726,51.2681 45.1516,48.2651 47.9316,47.4871 C50.8236,46.7081 53.8256,48.3761 54.6046,51.2681 L58.0516,64.0571 L82.5186,78.1811 L82.5186,50.3781 L73.1766,41.0371 C71.0636,38.9241 71.0636,35.4761 73.1766,33.3631 C75.2896,31.2501 78.7376,31.2501 80.7386,33.3631 L82.5186,35.1421 L82.5186,29.8041 C82.5186,26.8021 84.9646,24.3551 87.9676,24.3551" id="Fill-73" fill="#FEFEFE"></path>
                <path d="M88.19,24.3551 C91.081,24.4661 93.306,26.9131 93.306,29.8041 L93.306,35.1421 L95.085,33.3631 C97.198,31.2501 100.646,31.2501 102.759,33.3631 C104.76,35.4761 104.76,38.9241 102.759,41.0371 L93.306,50.3781 L93.306,78.9591 L118.439,64.5021 L121.887,51.7131 C122.665,48.8211 125.668,47.0421 128.448,47.8201 C131.34,48.5991 133.119,51.6021 132.341,54.4931 L131.673,56.8291 L136.344,54.1591 C138.902,52.6021 142.238,53.4921 143.684,56.1611 C145.241,58.7191 144.351,62.0551 141.793,63.5011 L137.123,66.1701 L139.458,66.8371 C142.35,67.6161 144.018,70.6191 143.239,73.3991 C142.461,76.2901 139.569,78.0701 136.678,77.2911 L123.889,73.8441 L99.422,87.9671 L123.444,101.8691 L136.233,98.4211 C139.124,97.6431 142.127,99.4221 142.906,102.3141 C143.684,105.0941 141.905,108.0971 139.124,108.8751 L136.678,109.5421 L141.349,112.2111 C143.906,113.6571 144.796,116.9931 143.35,119.5511 C141.905,122.2201 138.568,123.1101 135.899,121.5531 L131.34,118.8841 L131.896,121.2191 C132.674,124.1111 131.006,127.1141 128.115,127.8921 C125.223,128.6701 122.22,126.8911 121.442,124.0001 L118.106,111.2101 L93.306,96.9761 L93.306,126.0011 L102.759,135.3431 C104.76,137.4561 104.76,140.9041 102.759,143.0171 C100.646,145.1301 97.198,145.1301 95.085,143.0171 L93.306,141.2371 L93.306,146.5751 C93.306,149.4671 91.081,151.9131 88.19,152.0251 L88.19,24.3551 Z" id="Fill-75" fill="#C9EAF7"></path>
            </g>
        </g>
    </g>
</svg>