<?xml version="1.0" encoding="UTF-8"?>
<svg width="177px" height="178px" viewBox="0 0 177 178" version="1.1" xmlns="http://www.w3.org/2000/svg" xmlns:xlink="http://www.w3.org/1999/xlink">
    <title>normal</title>
    <g id="Screens" stroke="none" stroke-width="1" fill="none" fill-rule="evenodd">
        <g id="Artboard" transform="translate(-1366.000000, -780.000000)">
            <g id="normal" transform="translate(1366.003500, 780.898900)">
                <path d="M88.19,-5.68434189e-14 C136.9,-5.68434189e-14 176.491,39.48 176.491,88.19 C176.491,136.9 136.9,176.38 88.19,176.38 C39.48,176.38 0,136.9 0,88.19 C0,39.48 39.48,-5.68434189e-14 88.19,-5.68434189e-14" id="Fill-119" fill="#F2B71A"></path>
                <path d="M88.19,-5.68434189e-14 C136.9,-5.68434189e-14 176.491,39.48 176.491,88.19 C176.491,136.9 136.9,176.38 88.19,176.38 L88.19,-5.68434189e-14 Z" id="Fill-121" fill="#F38A20"></path>
                <path d="M88.19,26.0232 C113.324,26.0232 133.675,65.9482 133.675,100.2002 C133.675,167.0382 42.705,167.0382 42.705,100.2002 C42.705,65.9482 63.056,26.0232 88.19,26.0232" id="Fill-123" fill="#B46427"></path>
                <path d="M88.19,26.0232 C113.324,26.0232 133.675,65.9482 133.675,100.2002 C133.675,133.5642 110.988,150.3562 88.19,150.3562 L88.19,26.0232 Z" id="Fill-125" fill="#904F21"></path>
            </g>
        </g>
    </g>
</svg>