<?xml version="1.0" encoding="UTF-8"?>
<svg width="178px" height="178px" viewBox="0 0 178 178" version="1.1" xmlns="http://www.w3.org/2000/svg" xmlns:xlink="http://www.w3.org/1999/xlink">
    <title>poison</title>
    <g id="Screens" stroke="none" stroke-width="1" fill="none" fill-rule="evenodd">
        <g id="Artboard" transform="translate(-514.000000, -1066.000000)">
            <g id="poison" transform="translate(514.242100, 1066.265100)">
                <path d="M88.19,-1.42108547e-14 C137.011,-1.42108547e-14 176.491,39.48 176.491,88.301 C176.491,137.011 137.011,176.491 88.19,176.491 C39.48,176.491 0,137.011 0,88.301 C0,39.48 39.48,-1.42108547e-14 88.19,-1.42108547e-14" id="Fill-139" fill="#B82025"></path>
                <path d="M88.19,-1.42108547e-14 C137.011,-1.42108547e-14 176.491,39.48 176.491,88.301 C176.491,137.011 137.011,176.491 88.19,176.491 L88.19,-1.42108547e-14 Z" id="Fill-141" fill="#8E191B"></path>
                <path d="M92.6385,83.8527 C93.5285,83.8527 94.3065,85.0757 94.3065,86.6327 C94.3065,88.1897 93.5285,89.5247 92.6385,89.5247 C91.6375,89.5247 90.9705,88.1897 90.9705,86.6327 C90.9705,85.0757 91.6375,83.8527 92.6385,83.8527 M83.8525,83.8527 C84.7425,83.8527 85.5215,85.0757 85.5215,86.6327 C85.5215,88.1897 84.7425,89.5247 83.8525,89.5247 C82.9635,89.5247 82.1845,88.1897 82.1845,86.6327 C82.1845,85.0757 82.9635,83.8527 83.8525,83.8527 M102.2025,51.3797 C106.7625,51.3797 110.3205,57.7187 110.3205,65.3917 C110.3205,73.1767 106.7625,79.4047 102.2025,79.4047 C97.7545,79.4047 94.0845,73.1767 94.0845,65.3917 C94.0845,57.7187 97.7545,51.3797 102.2025,51.3797 M74.2885,51.3797 C78.7375,51.3797 82.4075,57.7187 82.4075,65.3917 C82.4075,73.1767 78.7375,79.4047 74.2885,79.4047 C69.7295,79.4047 66.1705,73.1767 66.1705,65.3917 C66.1705,57.7187 69.7295,51.3797 74.2885,51.3797 M143.0165,114.9917 L143.0165,114.9917 C143.7955,117.8827 142.0155,120.9967 139.1245,121.7757 L109.6535,129.6717 L139.1245,137.5677 C142.0155,138.3457 143.7955,141.3487 143.0165,144.3517 C142.2385,147.2427 139.1245,149.0217 136.2335,148.2437 L88.1905,135.3437 L40.2585,148.2437 C37.2555,149.0217 34.2525,147.2427 33.4745,144.3517 C32.6955,141.3487 34.4755,138.3457 37.3665,137.5677 L66.8375,129.6717 L37.3665,121.7757 C34.4755,120.9967 32.6955,117.8827 33.4745,114.9917 C34.2525,111.9887 37.2555,110.2097 40.2585,111.0997 L88.1905,123.8887 L136.2335,111.0997 C139.1245,110.2097 142.2385,111.9887 143.0165,114.9917 M88.1905,28.0247 C109.5425,28.0247 126.7805,45.3737 126.7805,66.6147 C126.7805,79.0707 120.8855,90.1917 111.6555,97.1977 C105.9835,118.7727 70.5075,118.7727 64.7245,97.1977 C55.6055,90.1917 49.7115,79.0707 49.7115,66.6147 C49.7115,45.3737 66.9485,28.0247 88.1905,28.0247" id="Fill-143" fill="#FEFEFE"></path>
                <path d="M92.6385,83.8527 C93.5285,83.8527 94.3065,85.0757 94.3065,86.6327 C94.3065,88.1897 93.5285,89.5247 92.6385,89.5247 C91.6375,89.5247 90.9705,88.1897 90.9705,86.6327 C90.9705,85.0757 91.6375,83.8527 92.6385,83.8527 L92.6385,83.8527 Z M102.2025,51.3797 C106.7625,51.3797 110.3205,57.7187 110.3205,65.3917 C110.3205,73.1767 106.7625,79.4047 102.2025,79.4047 C97.7545,79.4047 94.0845,73.1767 94.0845,65.3917 C94.0845,57.7187 97.7545,51.3797 102.2025,51.3797 L102.2025,51.3797 Z M88.1905,135.3437 L88.1905,123.8887 L136.2335,111.0997 C139.1245,110.2097 142.2385,111.9887 143.0165,114.9917 C143.7955,117.8827 142.0155,120.9967 139.1245,121.7757 L109.6535,129.6717 L139.1245,137.5677 C142.0155,138.3457 143.7955,141.3487 143.0165,144.3517 C142.2385,147.2427 139.1245,149.0217 136.2335,148.2437 L88.1905,135.3437 Z M88.1905,28.0247 C109.5425,28.0247 126.7805,45.3737 126.7805,66.6147 C126.7805,79.0707 120.8855,90.1917 111.6555,97.1977 C108.8755,107.9857 98.5325,113.3237 88.1905,113.3237 L88.1905,28.0247 Z" id="Fill-145" fill="#E4E5E6"></path>
            </g>
        </g>
    </g>
</svg>