<?xml version="1.0" encoding="UTF-8"?>
<svg width="178px" height="178px" viewBox="0 0 178 178" version="1.1" xmlns="http://www.w3.org/2000/svg" xmlns:xlink="http://www.w3.org/1999/xlink">
    <title>psychic</title>
    <g id="Screens" stroke="none" stroke-width="1" fill="none" fill-rule="evenodd">
        <g id="Artboard" transform="translate(-1147.000000, -780.000000)">
            <g id="psychic" transform="translate(1147.919900, 780.898900)">
                <path d="M88.301,-5.68434189e-14 C137.011,-5.68434189e-14 176.491,39.48 176.491,88.19 C176.491,136.9 137.011,176.38 88.301,176.38 C39.48,176.38 -5.68434189e-14,136.9 -5.68434189e-14,88.19 C-5.68434189e-14,39.48 39.48,-5.68434189e-14 88.301,-5.68434189e-14" id="Fill-109" fill="#BF3894"></path>
                <path d="M88.301,-5.68434189e-14 C137.011,-5.68434189e-14 176.491,39.48 176.491,88.19 C176.491,136.9 137.011,176.38 88.301,176.38 L88.301,-5.68434189e-14 Z" id="Fill-111" fill="#B11F82"></path>
                <path d="M87.9674,52.0465 L88.3014,52.1575 L88.5234,52.0465 C121.2194,52.0465 147.6874,81.7395 147.6874,88.1895 C147.6874,94.6405 121.2194,124.3335 88.5234,124.3335 L88.3014,124.2225 L87.9674,124.3335 C55.2714,124.3335 28.8034,94.6405 28.8034,88.1895 C28.8034,81.7395 55.2714,52.0465 87.9674,52.0465 M88.3014,66.8375 C100.0894,66.8375 109.6534,76.4015 109.6534,88.1895 C109.6534,99.9785 100.0894,109.5425 88.3014,109.5425 C76.4014,109.5425 66.9484,99.9785 66.9484,88.1895 C66.9484,76.4015 76.4014,66.8375 88.3014,66.8375 M87.8564,39.4795 L88.3014,39.4795 L88.6344,39.4795 C130.7834,39.4795 164.8134,79.4045 164.8134,88.1895 C164.8134,96.9755 130.7834,136.9005 88.6344,136.9005 L88.3014,136.9005 L87.8564,136.9005 C45.7074,136.9005 11.6774,96.9755 11.6774,88.1895 C11.6774,79.4045 45.7074,39.4795 87.8564,39.4795" id="Fill-113" fill="#F2B71A"></path>
                <path d="M88.301,109.5424 L88.301,66.8374 C100.089,66.8374 109.653,76.4014 109.653,88.1904 C109.653,99.9784 100.089,109.5424 88.301,109.5424 L88.301,109.5424 Z M88.301,39.4794 L88.635,39.4794 C130.783,39.4794 164.814,79.4044 164.814,88.1904 C164.814,96.9754 130.783,136.9004 88.635,136.9004 L88.301,136.9004 L88.301,124.2224 L88.523,124.3334 C121.219,124.3334 147.687,94.6404 147.687,88.1904 C147.687,81.7394 121.219,52.0464 88.523,52.0464 L88.301,52.1574 L88.301,39.4794 Z" id="Fill-115" fill="#F38A20"></path>
            </g>
        </g>
    </g>
</svg>