<?xml version="1.0" encoding="UTF-8"?>
<svg width="178px" height="178px" viewBox="0 0 178 178" version="1.1" xmlns="http://www.w3.org/2000/svg" xmlns:xlink="http://www.w3.org/1999/xlink">
    <title>rock</title>
    <g id="Screens" stroke="none" stroke-width="1" fill="none" fill-rule="evenodd">
        <g id="Artboard" transform="translate(-1147.000000, -495.000000)">
            <g id="rock" transform="translate(1147.919900, 495.421500)">
                <path d="M88.301,0 C137.011,0 176.491,39.48 176.491,88.19 C176.491,137.011 137.011,176.491 88.301,176.491 C39.48,176.491 -5.68434189e-14,137.011 -5.68434189e-14,88.19 C-5.68434189e-14,39.48 39.48,0 88.301,0" id="Fill-49" fill="#A59E96"></path>
                <path d="M88.301,0 C137.011,0 176.491,39.48 176.491,88.19 C176.491,137.011 137.011,176.491 88.301,176.491 L88.301,0 Z" id="Fill-51" fill="#917E6B"></path>
                <path d="M140.7924,106.762 C142.6834,110.766 144.4624,114.88 146.1304,118.995 C149.4664,127.002 149.1334,130.005 138.5684,133.008 C134.2304,134.231 128.4484,135.232 121.7754,135.899 C115.7704,136.566 116.5484,133.119 119.1064,129.115 L130.3384,110.432 C135.5654,101.98 136.4554,97.532 140.7924,106.762 M37.9224,133.008 C27.4684,130.005 27.0244,127.002 30.3604,118.995 C43.0384,87.967 61.6104,58.942 78.1804,41.259 C81.2944,37.923 85.6324,38.479 89.1904,41.259 C94.4174,45.151 95.3074,51.713 100.2004,58.274 C101.9794,60.721 114.8804,60.276 116.6594,62.945 C118.2164,65.28 119.8844,67.838 121.4414,70.507 C123.3324,73.733 125.1114,76.958 126.7794,79.96 C130.4494,86.522 131.1174,88.635 127.1134,95.196 L105.7614,130.227 C102.4244,135.677 99.5334,137.456 93.1944,137.456 C71.8414,137.79 49.5994,136.233 37.9224,133.008" id="Fill-53" fill="#8A7D70"></path>
                <path d="M140.7924,106.762 C142.6834,110.766 144.4624,114.88 146.1304,118.995 C149.4664,127.002 149.1334,130.005 138.5684,133.008 C134.2304,134.231 128.4484,135.232 121.7754,135.899 C115.7704,136.566 116.5484,133.119 119.1064,129.115 L130.3384,110.432 C135.5654,101.98 136.4554,97.532 140.7924,106.762 L140.7924,106.762 Z M113.4344,36.477 C117.9944,36.477 123.9994,41.259 123.9994,45.596 C123.9994,49.822 118.1054,55.16 113.5454,55.16 C108.8754,55.16 107.4294,49.822 107.4294,45.596 C107.4294,41.259 108.7634,36.477 113.4344,36.477 L113.4344,36.477 Z M88.3014,40.592 C88.5234,40.703 88.8574,40.925 89.1904,41.259 C94.4174,45.151 95.3074,51.713 100.2004,58.274 C101.9794,60.721 114.8804,60.276 116.6594,62.945 C118.2164,65.28 119.8844,67.838 121.4414,70.507 C123.3324,73.733 125.1114,76.958 126.7794,79.96 C130.4494,86.522 131.1174,88.635 127.1134,95.196 L105.7614,130.227 C102.4244,135.677 99.5334,137.456 93.1944,137.456 C91.5264,137.567 89.8584,137.567 88.3014,137.567 L88.3014,40.592 Z" id="Fill-55" fill="#745B44"></path>
            </g>
        </g>
    </g>
</svg>