<?xml version="1.0" encoding="UTF-8"?>
<svg width="177px" height="178px" viewBox="0 0 177 178" version="1.1" xmlns="http://www.w3.org/2000/svg" xmlns:xlink="http://www.w3.org/1999/xlink">
    <title>steel</title>
    <g id="Screens" stroke="none" stroke-width="1" fill="none" fill-rule="evenodd">
        <g id="Artboard" transform="translate(-1366.000000, -495.000000)">
            <g id="steel" transform="translate(1366.003500, 495.421500)">
                <path d="M88.19,0 C136.9,0 176.491,39.48 176.491,88.19 C176.491,137.011 136.9,176.491 88.19,176.491 C39.48,176.491 0,137.011 0,88.19 C0,39.48 39.48,0 88.19,0" id="Fill-59" fill="#523D28"></path>
                <path d="M88.19,0 C136.9,0 176.491,39.48 176.491,88.19 C176.491,137.011 136.9,176.491 88.19,176.491 L88.19,0 Z" id="Fill-61" fill="#352414"></path>
                <path d="M33.808,42.816 L50.49,33.141 C52.269,32.14 54.048,32.029 55.716,33.029 L63.501,37.478 C66.393,39.146 65.948,40.814 63.39,42.26 L40.926,55.16 C37.7,56.829 35.476,60.832 35.699,64.391 L35.699,90.192 C35.699,93.194 34.475,94.418 31.695,92.749 L23.91,88.301 C22.131,87.3 21.352,85.743 21.352,83.63 L21.352,64.391 C21.352,54.827 25.467,47.598 33.808,42.816 M155.139,64.613 L155.139,83.964 C155.139,85.966 154.36,87.523 152.581,88.523 L144.796,92.972 C141.905,94.64 140.792,93.528 140.792,90.525 L140.792,64.613 C141.015,60.943 138.68,57.051 135.454,55.494 L113.101,42.482 C110.432,41.037 109.987,39.48 112.879,37.811 L120.663,33.252 C122.443,32.251 124.111,32.362 125.89,33.363 L142.683,43.038 C150.913,47.82 155.139,55.049 155.139,64.613 M75.512,158.697 L58.83,149.133 C57.051,148.021 56.161,146.687 56.161,144.574 L56.161,135.677 C56.161,132.34 57.718,131.896 60.276,133.453 L82.741,146.353 C85.743,148.355 90.303,148.355 93.306,146.353 L115.659,133.453 C118.328,131.896 119.885,132.34 119.885,135.677 L119.885,144.574 C119.885,146.687 118.995,148.021 117.216,149.133 L100.423,158.697 C92.193,163.591 83.853,163.591 75.512,158.697 M90.192,131.784 L126.335,68.839 C127.225,67.171 126.113,65.392 124.333,65.392 L51.824,65.614 C49.6,65.614 48.71,67.171 49.822,69.062 L86.299,131.784 C87.412,133.786 88.968,133.786 90.192,131.784" id="Fill-63" fill="#8A7D70"></path>
                <path d="M155.1387,64.6133 L155.1387,83.9643 C155.1387,85.9653 154.3607,87.5223 152.5807,88.5233 L144.7957,92.9723 C141.9047,94.6403 140.7927,93.5283 140.7927,90.5253 L140.7927,64.6133 C141.0147,60.9433 138.6797,57.0513 135.4547,55.4943 L113.1007,42.4823 C110.4317,41.0363 109.9877,39.4793 112.8787,37.8113 L120.6637,33.2523 C122.4427,32.2513 124.1107,32.3623 125.8907,33.3633 L142.6827,43.0383 C150.9127,47.8203 155.1387,55.0493 155.1387,64.6133 M88.1897,147.7983 L88.1897,162.3673 C92.3047,162.2563 96.4197,161.1443 100.4227,158.6973 L117.2157,149.1333 C118.9957,148.0213 119.8847,146.6863 119.8847,144.5733 L119.8847,135.6773 C119.8847,132.3403 118.3277,131.8953 115.6587,133.4523 L93.3057,146.3533 C91.8597,147.2423 90.0807,147.7983 88.1897,147.7983 M90.1917,131.7843 L126.3357,68.8393 C127.2247,67.1713 126.1127,65.3923 124.3337,65.3923 L88.1897,65.5033 L88.1897,133.3413 C88.8577,133.3413 89.6357,132.7853 90.1917,131.7843" id="Fill-65" fill="#745B44"></path>
            </g>
        </g>
    </g>
</svg>