<?xml version="1.0" encoding="UTF-8"?>
<svg width="178px" height="178px" viewBox="0 0 178 178" version="1.1" xmlns="http://www.w3.org/2000/svg" xmlns:xlink="http://www.w3.org/1999/xlink">
    <title>water</title>
    <g id="Screens" stroke="none" stroke-width="1" fill="none" fill-rule="evenodd">
        <g id="Artboard" transform="translate(-311.000000, -495.000000)">
            <g id="water" transform="translate(311.505300, 495.421500)">
                <path d="M88.19,0 C137.011,0 176.491,39.48 176.491,88.19 C176.491,137.011 137.011,176.491 88.19,176.491 C39.48,176.491 -1.42108547e-14,137.011 -1.42108547e-14,88.19 C-1.42108547e-14,39.48 39.48,0 88.19,0" id="Fill-1" fill="#1FAEDE"></path>
                <path d="M88.19,0 C137.011,0 176.491,39.48 176.491,88.19 C176.491,137.011 137.011,176.491 88.19,176.491 L88.19,0 Z" id="Fill-3" fill="#0A86B2"></path>
                <path d="M124.6671,32.4734 C108.0971,34.5864 90.8591,41.7044 76.7351,51.8244 C27.6911,86.9664 44.0391,144.1284 93.7501,138.2344 C114.7691,135.7884 126.4461,119.2174 126.0021,102.7584 C125.7791,94.0844 122.3321,87.5224 114.9921,78.6254 C101.7581,62.8334 109.9871,45.1514 126.4461,36.0324 C131.2281,33.3634 129.6711,31.8064 124.6671,32.4734" id="Fill-5" fill="#C9EAF7"></path>
                <path d="M124.6671,32.4734 C112.4341,34.0304 99.7561,38.3674 88.1901,44.5954 L88.1901,138.6794 C90.0811,138.6794 91.8601,138.4574 93.7501,138.2344 C114.7691,135.7884 126.4461,119.2174 126.0021,102.7584 C125.7791,94.0844 122.3321,87.5224 114.9921,78.6254 C101.7581,62.8334 109.9871,45.1514 126.4461,36.0324 C131.2281,33.3634 129.6711,31.8064 124.6671,32.4734" id="Fill-7" fill="#65CDF5"></path>
                <path d="M104.6492,77.8474 C107.8742,77.8474 110.4322,81.0724 110.4322,85.0764 C110.4322,89.1904 107.8742,92.4164 104.6492,92.4164 C101.4242,92.4164 98.8662,89.1904 98.8662,85.0764 C98.8662,81.0724 101.4242,77.8474 104.6492,77.8474" id="Fill-9" fill="#FEFEFE"></path>
                <path d="M112.3227,92.972 C113.5457,92.972 114.5467,94.195 114.5467,95.752 C114.5467,97.198 113.5457,98.421 112.3227,98.421 C111.0997,98.421 110.2097,97.198 110.2097,95.752 C110.2097,94.195 111.0997,92.972 112.3227,92.972" id="Fill-11" fill="#FEFEFE"></path>
            </g>
        </g>
    </g>
</svg>